<svg width="50" height="58" viewBox="0 0 50 58" fill="none" xmlns="http://www.w3.org/2000/svg">
<mask id="mask0_854_2" style="mask-type:luminance" maskUnits="userSpaceOnUse" x="0" y="0" width="50" height="33">
<path d="M0.727417 0.483606L49.0782 1.10708L48.6708 32.7056L0.31996 32.0821L0.727417 0.483606Z" fill="white"/>
</mask>
<g mask="url(#mask0_854_2)">
<path d="M43.5704 11.5377L43.6387 6.24307L38.2667 6.17069L38.1313 16.6707L32.7588 16.6014L32.8265 11.3514L27.4544 11.2821L27.5221 6.03214L38.2667 6.17069L38.3338 0.968928L11.4721 0.622551L11.405 5.82431L22.1496 5.96286L22.0142 16.4628L16.6422 16.3936L16.7099 11.1436L11.3373 11.0743L11.405 5.82431L6.03248 5.75503L5.96417 11.0527L0.59215 10.9835L0.321366 31.9829L5.69338 32.0522L5.76108 26.8022L11.1336 26.8715L11.0659 32.1214L16.4385 32.1907L16.5062 26.9407L21.8782 27.01L21.8105 32.26L27.183 32.3293L27.2507 27.0793L32.6228 27.1486L32.5551 32.3985L37.9276 32.4678L37.9953 27.2178L43.3673 27.2871L43.2996 32.5371L48.6722 32.6064L48.9429 11.6069" fill="white"/>
</g>
<path d="M8.2529 46.51L2.86019 46.4404L2.894 43.8183L8.28671 43.8878L8.2529 46.51ZM2.96162 38.574L5.64498 38.6086L5.61116 41.2307L2.92781 41.1961L2.96162 38.574ZM8.29452 41.2653L8.36214 36.0216L0.312073 35.9178L0.143019 49.028L10.8764 49.1664L10.9779 41.2999" fill="white"/>
<path d="M13.7281 36.0908L13.5591 49.2009L22.9508 49.3221L22.9846 46.6999L16.2763 46.6134L16.3101 43.9913L21.6768 44.0605L21.7106 41.4383L16.3439 41.3691L16.3777 38.747L23.0861 38.8335L23.1199 36.2119" fill="white"/>
<mask id="mask1_854_2" style="mask-type:luminance" maskUnits="userSpaceOnUse" x="37" y="36" width="12" height="14">
<path d="M37.7711 36.2838L48.6229 36.4238L48.4517 49.7004L37.5999 49.5605L37.7711 36.2838Z" fill="white"/>
</mask>
<g mask="url(#mask1_854_2)">
<path d="M37.8777 36.4019L37.8439 39.0236L41.869 39.0755L41.7337 49.564L44.4171 49.5986L44.5523 39.1101L48.5768 39.162L48.6106 36.5403" fill="white"/>
</g>
<path d="M28.2981 41.5186L28.3367 38.8913L35.1607 38.9892L35.1945 36.3676L25.8033 36.2465L25.7357 41.4902L25.6981 44.117L32.4097 44.1989L32.3759 46.821L25.668 46.7345L25.6342 49.3567L35.0254 49.4778L35.1269 41.6124" fill="white"/>
<mask id="mask2_854_2" style="mask-type:luminance" maskUnits="userSpaceOnUse" x="38" y="52" width="5" height="6">
<path d="M38.2467 52.0917L42.8662 52.1512L42.7979 57.4448L38.1784 57.3852L38.2467 52.0917Z" fill="white"/>
</mask>
<g mask="url(#mask2_854_2)">
<path d="M41.588 53.2527L39.3929 53.2244L39.3527 56.3459L41.5478 56.3742L41.588 53.2527ZM38.2625 52.1413L42.7359 52.1989L42.6683 57.4422L38.1948 57.3845L38.2625 52.1413Z" fill="white"/>
</g>
<mask id="mask3_854_2" style="mask-type:luminance" maskUnits="userSpaceOnUse" x="5" y="51" width="6" height="7">
<path d="M5.63879 51.6712L10.2582 51.7308L10.19 57.0243L5.57053 56.9648L5.63879 51.6712Z" fill="white"/>
</mask>
<g mask="url(#mask3_854_2)">
<path d="M6.81628 53.8061L9.03896 53.8348L9.05201 52.8229L6.82933 52.7943L6.81628 53.8061ZM5.63907 56.9649L5.70667 51.7232L10.1749 51.7808L10.1073 57.0163L9.04005 57.0025L9.06665 54.94L6.79355 54.9106L6.76687 56.9794" fill="white"/>
</g>
<mask id="mask4_854_2" style="mask-type:luminance" maskUnits="userSpaceOnUse" x="22" y="51" width="5" height="7">
<path d="M22.3503 51.8867L26.9698 51.9462L26.9015 57.2398L22.2821 57.1802L22.3503 51.8867Z" fill="white"/>
</mask>
<g mask="url(#mask4_854_2)">
<path d="M23.5404 54.0247L25.7743 54.0535L25.7872 53.0494L23.5534 53.0206L23.5404 54.0247ZM23.498 57.195L22.3925 57.1807L22.4601 51.9375L26.9182 51.995L26.8508 57.218L25.7565 57.2039L25.783 55.145L23.5248 55.1158" fill="white"/>
</g>
<mask id="mask5_854_2" style="mask-type:luminance" maskUnits="userSpaceOnUse" x="0" y="51" width="5" height="6">
<path d="M0.0683594 51.5994L4.55194 51.6572L4.48368 56.9507L9.98303e-05 56.8929L0.0683594 51.5994Z" fill="white"/>
</mask>
<g mask="url(#mask5_854_2)">
<path d="M3.40149 53.7693L3.42818 51.6995L4.54907 51.714L4.48165 56.9422L3.36925 56.9278L3.39594 54.858L1.14831 54.829L1.12152 56.9071L9.05033e-05 56.8927L0.067688 51.6505L1.16258 51.6646L1.13581 53.7401" fill="white"/>
</g>
<mask id="mask6_854_2" style="mask-type:luminance" maskUnits="userSpaceOnUse" x="32" y="52" width="6" height="6">
<path d="M32.5403 52.0181L37.1598 52.0777L37.0915 57.3712L32.4721 57.3117L32.5403 52.0181Z" fill="white"/>
</mask>
<g mask="url(#mask6_854_2)">
<path d="M33.6691 55.2533L33.6424 57.3216L32.5523 57.3075L32.6198 52.07L33.6956 52.0838L33.6688 54.1588L35.9446 54.1882L35.9713 52.1199L37.0778 52.1342L37.0103 57.3702L35.9175 57.3561L35.9443 55.2826" fill="white"/>
</g>
<mask id="mask7_854_2" style="mask-type:luminance" maskUnits="userSpaceOnUse" x="11" y="51" width="5" height="7">
<path d="M11.3453 51.7448L15.9647 51.8043L15.8965 57.0979L11.277 57.0383L11.3453 51.7448Z" fill="white"/>
</mask>
<g mask="url(#mask7_854_2)">
<path d="M11.368 51.7945L15.8384 51.8521L15.825 52.8893L12.4989 52.8465L12.458 56.0204L15.7963 56.0635L15.7829 57.0955L11.3004 57.0377" fill="white"/>
</g>
<mask id="mask8_854_2" style="mask-type:luminance" maskUnits="userSpaceOnUse" x="27" y="51" width="5" height="7">
<path d="M28.0567 51.9603L31.4534 52.0041L31.3851 57.2976L27.9884 57.2538L28.0567 51.9603Z" fill="white"/>
</mask>
<g mask="url(#mask8_854_2)">
<path d="M28.0958 52.0102L31.4436 52.0533L31.4303 53.0823L30.3386 53.0682L30.2843 57.2825L29.1464 57.2678L29.2005 53.0706L28.0823 53.0562" fill="white"/>
</g>
<mask id="mask9_854_2" style="mask-type:luminance" maskUnits="userSpaceOnUse" x="16" y="51" width="6" height="7">
<path d="M16.9157 51.8166L21.671 51.8779L21.6028 57.1715L16.8475 57.1102L16.9157 51.8166Z" fill="white"/>
</mask>
<g mask="url(#mask9_854_2)">
<path d="M21.5374 57.17L18.9837 54.5295L21.2956 51.9222L19.9672 51.9051L18.091 54.0206L18.1186 51.8808L17.0084 51.8664L16.9407 57.1107L18.051 57.1251L18.0788 54.9733L20.1702 57.1524" fill="white"/>
</g>
<mask id="mask10_854_2" style="mask-type:luminance" maskUnits="userSpaceOnUse" x="43" y="52" width="6" height="6">
<path d="M43.8171 52.1635L48.4191 52.2228L48.3508 57.5164L43.7489 57.4571L43.8171 52.1635Z" fill="white"/>
</mask>
<g mask="url(#mask10_854_2)">
<path d="M48.4067 52.2721L47.3044 52.2579L47.2608 55.632L45.2626 52.2315L43.93 52.2143L43.8624 57.4576L44.9647 57.4718L45.0089 54.0437L47.0388 57.4985L48.3391 57.5153" fill="white"/>
</g>
</svg>
